<svg width="1951" height="1300" viewBox="0 0 1951 1300" fill="none" xmlns="http://www.w3.org/2000/svg">
<rect width="1930" height="1300" fill="#F2F7FF"/>
<path d="M1286 996.384L1951 913V1014.62L1286 1098V996.384Z" fill="#F1E4FF"/>
<path d="M1375.18 899.831L1860.94 834L1862.28 902.69L1376.51 968.522L1375.18 899.831Z" fill="#75E3EA"/>
<circle opacity="0.6" cx="1851" cy="365" r="75" fill="#8C30F5" fill-opacity="0.5"/>
<path opacity="0.5" d="M1159.77 158.288L895.322 404.24L863.287 359.776L1127.74 113.824L1159.77 158.288Z" fill="#F1E4FF"/>
<path opacity="0.5" d="M1306.95 111.282L1040.46 354.407L1010.91 313.387L1277.4 70.2619L1306.95 111.282Z" fill="#75E3EA"/>
<path opacity="0.5" d="M1489.64 40.4211L1111.86 386.29L1082.74 345.869L1460.52 2.58132e-05L1489.64 40.4211Z" fill="#D6B1FF"/>
<path opacity="0.5" d="M1502.39 128.297L1242.58 365.055L1213.93 325.288L1473.74 88.53L1502.39 128.297Z" fill="#F8D3B5"/>
<circle opacity="0.6" cx="439.5" cy="936.5" r="139.5" fill="#2EC5CE" fill-opacity="0.8"/>
<path d="M0 1008L711 924V993.996L0 1078V1008Z" fill="#D6B1FF"/>
<path d="M185 906.791L674 850V919.209L185 976V906.791Z" fill="#F8D3B5"/>
<circle opacity="0.6" cx="499.852" cy="279.745" r="62.1507" transform="rotate(36.1662 499.852 279.745)" fill="#F8D3B5"/>
</svg>
